:SAMPLES-PER-SECOND 30
:FULLY-SPECIFIED
:DEGREES
46
root  -45.5482 39.2363 -1.85062 -74.0569 84.1754 -71.4727
RightUpLeg  -17.7015 -15.9764 9.14835
RightLeg  25.9817 -1.29739 -0.638508
RightFoot  -6.46772 0.205957 -5.86984
RightToes  -2.9104e-010 0 -3.6325e-017
Spine  9.65132 -2.7114 10.4158
Spine1  9.62569 -2.63748 5.4015
HEad  2.40375 6.08705 -4.31336
LeftShoulder1  8.14218 -12.1939 -45.2045
LeftArm  -6.15631 12.4628 -34.6194
LeftForeArm  33.1838 -38.9683 -6.97668
LeftHand  -0.244104 0.0205437 5.32207
RightShoulder  4.7019 8.15959 34.3616
RightArm  -1.80773 -10.2742 34.9424
RightForeArm  -7.52574 15.5836 7.12515
RightHand  -1.46935 3.29303 -19.7102
LeftUpLeg  -0.657903 2.80471 7.94848
LeftLeg  56.5774 4.6178 7.9961
LeftFoot  11.6889 0.630516 -3.3969
LeftToes  1.09107e-011 -5.80176e-011 5.60941e-012
47
root  -44.1882 39.4999 -1.63376 -74.4956 84.8554 -71.4675
RightUpLeg  -14.0894 -15.6513 7.4502
RightLeg  25.1114 -1.78568 0.0122054
RightFoot  -8.4002 0.0806457 -5.36317
RightToes  -2.9104e-010 0 -3.6325e-017
Spine  9.19062 -2.10496 10.4357
Spine1  10.3774 -1.8404 4.97538
HEad  3.57363 5.18906 -4.39366
LeftShoulder1  8.06589 -12.0165 -45.295
LeftArm  -7.16188 14.2891 -34.0292
LeftForeArm  32.3135 -39.1604 -7.0868
LeftHand  -0.244104 0.0205437 5.32207
RightShoulder  4.78895 8.37788 34.3535
RightArm  4.90927 -8.05506 34.4148
RightForeArm  -9.71236 20.8567 5.79623
RightHand  -1.39813 3.33315 -18.7062
LeftUpLeg  -6.03909 1.03271 6.77478
LeftLeg  61.2396 2.96138 6.44992
LeftFoot  9.01466 0.629858 -3.84177
LeftToes  1.09107e-011 -5.80176e-011 5.60941e-012
48
root  -42.8056 39.7564 -1.40683 -72.848 85.7706 -69.6557
RightUpLeg  -10.5409 -14.2792 5.38106
RightLeg  23.8209 -3.10929 0.933692
RightFoot  -10.1247 -0.0152957 -4.96525
RightToes  -2.9104e-010 0 -3.6325e-017
Spine  8.6277 -1.40461 10.4194
Spine1  10.478 -0.86376 4.09988
HEad  5.28119 4.37085 -4.40979
LeftShoulder1  7.93593 -11.8475 -45.0455
LeftArm  -7.52431 16.0391 -33.4458
LeftForeArm  30.7191 -37.8307 -6.80863
LeftHand  -0.244104 0.0205437 5.32207
RightShoulder  4.66519 8.14389 34.1023
RightArm  6.7439 -5.99992 34.5938
RightForeArm  -8.05126 24.8053 5.62019
RightHand  -1.39828 3.48906 -18.3909
LeftUpLeg  -10.9577 -0.0585465 5.61769
LeftLeg  62.2944 2.48686 5.75031
LeftFoot  6.15641 0.68683 -4.6866
LeftToes  1.09107e-011 -5.80176e-011 5.60941e-012
49
root  -41.4117 39.9591 -1.18414 -66.023 86.6434 -62.8419
RightUpLeg  -7.23319 -12.4598 3.48299
RightLeg  22.3747 -4.64939 1.7992
RightFoot  -11.6211 -0.0893345 -4.38437
RightToes  -2.9104e-010 0 -3.6325e-017
Spine  8.29033 -0.621612 10.5526
Spine1  9.71386 0.294081 2.72331
HEad  7.27916 3.80793 -4.49896
LeftShoulder1  7.78093 -11.694 -44.5923
LeftArm  -7.35818 17.8119 -32.751
LeftForeArm  29.1699 -35.4947 -6.26805
LeftHand  -0.244104 0.0205437 5.32207
RightShoulder  4.50477 7.83145 33.7946
RightArm  5.97172 -4.66254 35.1597
RightForeArm  -5.57707 28.2419 6.4009
RightHand  -1.35097 3.24673 -18.262
LeftUpLeg  -15.1657 -0.429948 4.42445
LeftLeg  60.1621 2.86366 5.94184
LeftFoot  4.23928 0.497571 -3.80905
LeftToes  1.09107e-011 -5.80176e-011 5.60941e-012
50
root  -40.0016 40.1479 -0.95561 -47.5143 87.3823 -44.1664
RightUpLeg  -3.5106 -11.0862 1.66723
RightLeg  20.3156 -5.50947 2.57051
RightFoot  -12.89 -0.140671 -3.94492
RightToes  -2.9104e-010 0 -3.6325e-017
Spine  8.08039 0.21679 10.2206
Spine1  9.09773 1.40619 1.12598
HEad  8.74869 3.67913 -4.83945
LeftShoulder1  7.63412 -11.5296 -44.2118
LeftArm  -6.88856 19.28 -31.9223
LeftForeArm  27.8494 -32.5712 -5.60125
LeftHand  -0.244104 0.0205437 5.32207
RightShoulder  4.43381 7.72465 33.5423
RightArm  5.19331 -3.53474 35.8252
RightForeArm  -4.49512 31.3986 7.13871
RightHand  -1.18461 2.43447 -17.6656
LeftUpLeg  -18.1032 -0.0506648 3.05638
LeftLeg  55.0204 3.56375 5.94808
LeftFoot  2.21164 0.339511 -2.99508
LeftToes  1.09107e-011 -5.80176e-011 5.60941e-012
51
root  -38.5977 40.2537 -0.731402 -23.1391 87.6284 -19.6085
RightUpLeg  0.20877 -10.3014 0.173166
RightLeg  18.1825 -5.64863 3.27943
RightFoot  -14.2652 -0.189351 -3.65036
RightToes  -2.9104e-010 0 -3.6325e-017
Spine  7.69575 0.93247 9.77677
Spine1  9.10628 2.29555 -0.3657
HEad  9.33171 4.01788 -5.34972
LeftShoulder1  7.55884 -11.4025 -44.1449
LeftArm  -6.22411 20.338 -30.8362
LeftForeArm  26.4538 -29.1603 -4.86705
LeftHand  -0.244104 0.0205437 5.32207
RightShoulder  4.42588 7.76045 33.3474
RightArm  4.65823 -2.12177 36.5838
RightForeArm  -3.92321 33.8861 7.7772
RightHand  -1.04268 1.77141 -16.9941
LeftUpLeg  -19.896 1.08535 1.88352
LeftLeg  47.0058 4.0597 5.06622
LeftFoot  0.594193 0.412956 -3.98257
LeftToes  1.09107e-011 -5.80176e-011 5.60941e-012
